<?xml version="1.0" encoding="UTF-8"?>
<svg id="Layer_2" xmlns="http://www.w3.org/2000/svg" version="1.1" viewBox="0 0 1859.55 1546.66">
  <!-- Generator: Adobe Illustrator 30.4.0, SVG Export Plug-In . SVG Version: 2.1.4 Build 226)  -->
  <defs>
    <style>
      .st0 {
        fill: #507abd;
      }
    </style>
  </defs>
  <path class="st0" d="M965.49,1017.38h-106.23c-8.94,0-16.2,7.25-16.2,16.2s7.25,16.2,16.2,16.2h106.23c8.94,0,16.2-7.25,16.2-16.2s-7.25-16.2-16.2-16.2Z"/>
  <path class="st0" d="M1151.4,1017.38h-106.23c-8.94,0-16.2,7.25-16.2,16.2s7.25,16.2,16.2,16.2h106.23c8.94,0,16.2-7.25,16.2-16.2s-7.25-16.2-16.2-16.2Z"/>
  <path class="st0" d="M620.12,1120.54l-80.18,69.69c-6.75,5.87-7.47,16.1-1.6,22.85,3.2,3.69,7.71,5.57,12.23,5.57,3.77,0,7.55-1.31,10.62-3.97l80.18-69.69c6.75-5.87,7.47-16.1,1.6-22.85-5.87-6.75-16.1-7.47-22.85-1.6Z"/>
  <path class="st0" d="M779.58,1017.38h-34.72c-3.91,0-7.68,1.41-10.63,3.97l-53.98,46.92c-6.75,5.87-7.47,16.1-1.6,22.85,3.2,3.68,7.71,5.57,12.23,5.57,3.77,0,7.55-1.31,10.62-3.97l49.41-42.94h28.66c8.94,0,16.2-7.25,16.2-16.2s-7.25-16.2-16.2-16.2Z"/>
  <path class="st0" d="M479.8,1242.51l-17.63,15.33v-23.36c0-8.95-7.25-16.2-16.2-16.2s-16.2,7.25-16.2,16.2v58.9c0,6.35,3.71,12.11,9.48,14.74,2.15.98,4.44,1.46,6.72,1.46,3.83,0,7.62-1.36,10.63-3.97l44.46-38.64c6.75-5.87,7.47-16.1,1.6-22.85-5.87-6.75-16.1-7.47-22.85-1.6Z"/>
  <path class="st0" d="M445.97,718.18c8.94,0,16.2-7.25,16.2-16.2v-125.29c0-8.95-7.25-16.2-16.2-16.2s-16.2,7.25-16.2,16.2v125.29c0,8.95,7.25,16.2,16.2,16.2Z"/>
  <path class="st0" d="M445.97,1156.7c8.94,0,16.2-7.25,16.2-16.2v-125.29c0-8.95-7.25-16.2-16.2-16.2s-16.2,7.25-16.2,16.2v125.29c0,8.95,7.25,16.2,16.2,16.2Z"/>
  <path class="st0" d="M445.97,937.44c8.94,0,16.2-7.25,16.2-16.2v-125.29c0-8.95-7.25-16.2-16.2-16.2s-16.2,7.25-16.2,16.2v125.29c0,8.95,7.25,16.2,16.2,16.2Z"/>
  <path class="st0" d="M504.88,407.62h-58.9c-8.94,0-16.2,7.25-16.2,16.2v58.9c0,8.95,7.25,16.2,16.2,16.2s16.2-7.25,16.2-16.2v-42.7h42.7c8.94,0,16.2-7.25,16.2-16.2s-7.25-16.2-16.2-16.2Z"/>
  <path class="st0" d="M581.85,440.02h102.63c8.94,0,16.2-7.25,16.2-16.2s-7.25-16.2-16.2-16.2h-102.63c-8.94,0-16.2,7.25-16.2,16.2s7.25,16.2,16.2,16.2Z"/>
  <path class="st0" d="M761.45,440.02h102.63c8.94,0,16.2-7.25,16.2-16.2s-7.25-16.2-16.2-16.2h-102.63c-8.94,0-16.2,7.25-16.2,16.2s7.25,16.2,16.2,16.2Z"/>
  <path class="st0" d="M941.05,440.02h58.9c8.94,0,16.2-7.25,16.2-16.2s-7.25-16.2-16.2-16.2h-58.9c-8.94,0-16.2,7.25-16.2,16.2s7.25,16.2,16.2,16.2Z"/>
  <path class="st0" d="M1305.84,728.63c58.08-36.35,123.9-77.54,123.94-188.79.02-51.71-20.85-101.24-61.15-146.71l10.75-8.55c36.88-32.37,48.79-79.1,26.61-104.38-22.18-25.27-70.06-19.52-106.95,12.85l-23.75,22.99c-3.32-2.1-6.69-4.18-10.11-6.24-79.29-47.87-157.35-71.08-160.63-72.05-8.6-2.53-17.58,2.39-20.1,10.97-2.53,8.58,2.39,17.58,10.97,20.11,1.53.45,79.46,23.96,155.76,70.55l-626.61,606.46-13.25,11.63c-9.22,8.09-12.2,19.78-6.65,26.09,5.55,6.32,17.52,4.88,26.74-3.21l13.25-11.63,698.66-555.48c32.1,35.6,54.09,77.77,54.07,126.57-.03,93.32-52.83,126.36-108.73,161.34-51,31.92-103.74,64.92-107.39,143.33-3.7,79.5,37.42,139.63,67.84,172.88h-18.02c-8.94,0-16.2,7.25-16.2,16.2s7.25,16.2,16.2,16.2h58.9c.61,0,1.21-.04,1.8-.1.04,0,.07-.01.11-.02.56-.07,1.12-.16,1.66-.28.07-.02.15-.04.22-.06.51-.12,1.01-.27,1.5-.44.09-.03.18-.07.27-.1.47-.17.94-.37,1.39-.58.09-.04.19-.09.28-.14.47-.24.93-.5,1.38-.78.06-.04.12-.07.17-.1,1.05-.68,2.02-1.48,2.89-2.38,0,0,0,0,.01-.01.44-.46.84-.94,1.23-1.44.01-.02.03-.03.04-.04,0-.01.01-.02.02-.03.64-.85,1.19-1.77,1.66-2.74.01-.02.02-.05.03-.07.44-.93.78-1.9,1.04-2.91,0-.03.02-.07.03-.1.24-.96.38-1.95.44-2.97,0-.05,0-.1,0-.16.01-.25.04-.49.04-.74,0-.77-.07-1.52-.18-2.26,0-.02,0-.05-.01-.07-.15-1.02-.39-2.01-.71-2.96,0-.02-.01-.03-.02-.05-.34-.96-.76-1.88-1.26-2.75-.03-.05-.06-.11-.1-.16-.5-.85-1.08-1.64-1.72-2.38-.07-.08-.14-.15-.21-.23-.66-.73-1.37-1.39-2.15-1.99-.05-.04-.08-.08-.13-.12-.91-.69-90.95-69.74-86.08-174.62,2.86-61.46,44.26-87.37,92.21-117.37ZM1342.65,303.62c6.05-5.32,18.11-1.49,26.92,8.55,8.81,10.04,11.05,22.49,4.99,27.8l-31.27,27.44c-11.55-10.6-24.23-20.94-38.01-31l37.37-32.8ZM1259.27,441.17c-6.06,5.32-18.11,1.49-26.92-8.55-8.81-10.04-11.05-22.49-4.99-27.8l52.86-46.39c13.39,9.42,26.39,19.59,38.57,30.5l-59.52,52.24Z"/>
</svg>